<?xml version="1.0" encoding="iso-8859-1"?>
<!-- Generator: Adobe Illustrator 19.0.0, SVG Export Plug-In . SVG Version: 6.00 Build 0)  -->
<svg version="1.1" id="Capa_1" xmlns="http://www.w3.org/2000/svg" xmlns:xlink="http://www.w3.org/1999/xlink" x="0px" y="0px"
	 viewBox="0 0 310 310" style="enable-background:new 0 0 310 310;" xml:space="preserve">
<g id="XMLID_963_">
	<path id="XMLID_964_" style="fill:#A0815C;" d="M95,47.798V0H65v76.747C73.063,65.297,83.254,55.457,95,47.798z"/>
	<path id="XMLID_965_" style="fill:#A0815C;" d="M245,76.747V0h-30v47.798C226.746,55.457,236.938,65.297,245,76.747z"/>
	<path id="XMLID_966_" style="fill:#FF5023;" d="M75,200v-30v-0.001h80c0-13.552,0-27.76,0-41.716l-28.284-28.284L155,71.715
		c0-24.078,0-40.942,0-41.715c-22.138,0-42.744,6.545-60,17.798c-11.746,7.659-21.938,17.499-30,28.949
		C52.402,94.64,45,116.454,45,140v110h30V200z"/>
	<path id="XMLID_967_" style="fill:#BF3C1A;" d="M245,76.747c-8.063-11.45-18.254-21.29-30-28.949C197.744,36.545,177.138,30,155,30
		c0,0.773,0,17.637,0,41.715l28.284,28.284L155,128.283c0,13.956,0,28.164,0,41.716h80V170v30v50h30V140
		C265,116.454,257.598,94.64,245,76.747z"/>
	<polygon id="XMLID_968_" style="fill:#A0815C;" points="235,279.999 75,279.999 75,250 45,250 45,310 265,310 265,250 235,250 	"/>
	<polygon id="XMLID_969_" style="fill:#786145;" points="75,170 235,170 235,169.999 155,169.999 75,169.999 	"/>
	<polygon id="XMLID_970_" style="fill:#786145;" points="75,200 75,250 75,279.999 235,279.999 235,250 235,200 	"/>
	<rect id="XMLID_971_" x="75" y="170" style="fill:#50412E;" width="160" height="30"/>
	
		<rect id="XMLID_972_" x="135" y="79.999" transform="matrix(-0.7071 0.7071 -0.7071 -0.7071 335.3115 61.1074)" style="fill:#50412E;" width="40" height="40"/>
</g>
<g>
</g>
<g>
</g>
<g>
</g>
<g>
</g>
<g>
</g>
<g>
</g>
<g>
</g>
<g>
</g>
<g>
</g>
<g>
</g>
<g>
</g>
<g>
</g>
<g>
</g>
<g>
</g>
<g>
</g>
</svg>
